<?xml version="1.0" encoding="utf-8"?>
<!-- Generator: Adobe Illustrator 27.3.1, SVG Export Plug-In . SVG Version: 6.00 Build 0)  -->
<svg version="1.1" id="Capa_1" xmlns="http://www.w3.org/2000/svg" xmlns:xlink="http://www.w3.org/1999/xlink" x="0px" y="0px"
	 viewBox="0 0 32 43.81" style="enable-background:new 0 0 32 43.81;" xml:space="preserve">
<style type="text/css">
	.st0{fill:#F2BAA8;}
	.st1{fill:#42464E;}
</style>
<path class="st0" d="M27,0.53c-1.96,0.71-3.74,1.76-5.28,3.17c-1.86,1.7-3.15,3.81-3.83,6.19c-2.18,0.05-3.93,1.84-3.93,4.03v2.62
	c0,2.03,1.5,3.72,3.45,3.99v22.95c0,0.11,0,0.22,0.02,0.32C7.47,41.65,0,32.78,0,22.16C0,9.92,9.92,0,22.16,0
	C23.82,0,25.44,0.18,27,0.53z"/>
<path class="st1" d="M24.31,16.56V43.5h-2.86V16.56H18v-2.62h3.39c0-2.98,1.02-5.4,3.04-7.24S28.99,3.81,32,3.57v2.68
	c-2.15,0.24-3.96,1.05-5.45,2.42c-1.49,1.37-2.24,3.13-2.24,5.28h7.09v2.62H24.31z"/>
</svg>
