<svg width="205" height="76" viewBox="0 0 205 76" fill="none" xmlns="http://www.w3.org/2000/svg">
<path d="M46.6241 1.33245C43.233 2.54203 40.1722 4.3564 37.5115 6.77555C34.2942 9.69582 32.0682 13.3073 30.903 17.4026C27.1467 17.489 24.1207 20.5647 24.1207 24.3144V28.8072C24.1207 32.2977 26.7119 35.1834 30.0857 35.6499V75.0303C30.0857 75.2204 30.0857 75.4105 30.1205 75.5833C12.9038 71.8682 0 56.6447 0 38.4319C0 17.4371 17.1297 0.416626 38.2593 0.416626C41.1287 0.416626 43.9286 0.72766 46.6241 1.33245Z" fill="#F1B9A8"/>
<path d="M41.9808 28.8245V75.0477H37.0419V28.8245H31.0769V24.3318H36.9376C36.9376 19.217 38.694 15.0699 42.1895 11.9077C45.685 8.74549 50.05 6.9484 55.2498 6.53369V11.1301C51.5456 11.5448 48.4153 12.9272 45.8415 15.2772C43.2677 17.6273 41.9808 20.6512 41.9808 24.3318H54.2238V28.8245H41.9808Z" fill="#42464D"/>
<path d="M86.6572 29.0145C84.7964 28.3925 83.1269 28.0987 81.6139 28.0987C77.7011 28.0987 74.3447 29.4293 71.5274 32.0903C70.2231 33.3863 69.1971 34.8896 68.4319 36.583C67.6667 38.2937 67.3015 40.0217 67.3015 41.8015V75.0304H62.4669V41.8015C62.4669 38.1901 63.4408 34.9415 65.4059 32.0385C67.3537 29.1355 70.0492 26.8719 73.4925 25.2476C75.962 24.0898 78.6749 23.5023 81.6313 23.5023C85.4051 23.5023 88.7962 24.4181 91.8222 26.2671L86.6572 29.0145Z" fill="#42464D"/>
<path d="M98.7958 17.61C98.2393 17.0397 97.9785 16.2967 97.9785 15.4154C97.9785 14.5342 98.2567 13.7911 98.7958 13.2209C99.3349 12.6334 100.065 12.3569 100.952 12.3569C101.839 12.3569 102.604 12.6507 103.213 13.2209C103.839 13.8084 104.135 14.5342 104.135 15.4154C104.135 16.2967 103.822 17.0397 103.213 17.61C102.604 18.1975 101.839 18.4739 100.952 18.4739C100.065 18.4912 99.3349 18.1975 98.7958 17.61ZM98.5871 75.0304V23.8998H103.317V75.0304H98.5871Z" fill="#42464D"/>
<path d="M113.404 75.0304V69.5009L149.42 29.0145H113.404V24.3145H155.089V29.9304L119.265 70.434H155.072V75.0304H113.404Z" fill="#42464D"/>
<path d="M163.315 75.0304V69.5009L199.331 29.0145H163.315V24.3145H205V29.9304L169.175 70.434H204.983V75.0304H163.315Z" fill="#42464D"/>
</svg>
