<svg width="205" height="76" viewBox="0 0 205 76" fill="none" xmlns="http://www.w3.org/2000/svg">
<g clip-path="url(#clip0_22_77)">
<path d="M46.6241 0.9217C43.233 2.13904 40.1722 3.96505 37.5115 6.39973C34.2942 9.33873 32.0682 12.9734 30.903 17.0949C27.1467 17.1819 24.1207 20.2774 24.1207 24.0512V28.5727C24.1207 32.0856 26.7119 34.9898 30.0857 35.4594V75.0925C30.0857 75.2838 30.0857 75.4751 30.1205 75.649C12.9038 71.91 0 56.5889 0 38.2592C0 17.1297 17.1297 0 38.2593 0C41.1287 0 43.9286 0.31303 46.6241 0.9217Z" fill="#FBFAF5"/>
<path d="M41.9808 28.5901V75.1098H37.0419V28.5901H31.0769V24.0685H36.9376C36.9376 18.9209 38.694 14.7472 42.1895 11.5647C45.685 8.38224 50.05 6.57362 55.2498 6.15625V10.7821C51.5456 11.1995 48.4153 12.5908 45.8415 14.9559C43.2677 17.321 41.9808 20.3643 41.9808 24.0685H54.2238V28.5901H41.9808Z" fill="#FBFAF5"/>
<path d="M86.6572 28.7815C84.7964 28.1554 83.1269 27.8598 81.6139 27.8598C77.7011 27.8598 74.3447 29.1989 71.5274 31.877C70.2231 33.1813 69.1971 34.6943 68.4319 36.3985C67.6667 38.1202 67.3015 39.8593 67.3015 41.6505V75.0926H62.4669V41.6505C62.4669 38.0159 63.4408 34.7464 65.4059 31.8248C67.3537 28.9032 70.0492 26.625 73.4925 24.9903C75.962 23.8252 78.6749 23.2339 81.6313 23.2339C85.4051 23.2339 88.7962 24.1556 91.8222 26.0164L86.6572 28.7815Z" fill="#FBFAF5"/>
<path d="M98.7958 17.3036C98.2393 16.7297 97.9785 15.9819 97.9785 15.095C97.9785 14.2081 98.2567 13.4603 98.7958 12.8864C99.3349 12.2951 100.065 12.0168 100.952 12.0168C101.839 12.0168 102.604 12.3125 103.213 12.8864C103.839 13.4777 104.135 14.2081 104.135 15.095C104.135 15.9819 103.822 16.7297 103.213 17.3036C102.604 17.8949 101.839 18.1731 100.952 18.1731C100.065 18.1905 99.3349 17.8949 98.7958 17.3036ZM98.5871 75.0924V23.6337H103.317V75.0924H98.5871Z" fill="#FBFAF5"/>
<path d="M113.404 75.0926V69.5276L149.42 28.7815H113.404V24.0513H155.089V29.7032L119.264 70.4667H155.072V75.0926H113.404Z" fill="#FBFAF5"/>
<path d="M163.315 75.0926V69.5276L199.331 28.7815H163.315V24.0513H205V29.7032L169.175 70.4667H204.983V75.0926H163.315Z" fill="#FBFAF5"/>
</g>
<defs>
<clipPath id="clip0_22_77">
<rect width="205" height="75.649" fill="white"/>
</clipPath>
</defs>
</svg>
