<svg width="36" height="36" viewBox="0 0 36 36" fill="none" xmlns="http://www.w3.org/2000/svg">
<path d="M30.3847 5.624C27.0842 2.32175 22.6952 0.50175 18.0192 0.5C8.38375 0.5 0.542 8.33825 0.5385 17.9737C0.53675 21.0537 1.34175 24.0602 2.87125 26.7097L0.5 35.5L9.65775 33.3353C12.211 34.7283 15.0845 35.4615 18.0105 35.4633H18.0175C27.6513 35.4633 35.493 27.6233 35.4983 17.9895C35.5018 13.3188 33.6852 8.928 30.3847 5.624ZM26.5715 24.2195C26.2075 25.2397 24.4243 26.2232 23.6228 26.295C22.8213 26.3685 22.0705 26.6572 18.3815 25.203C13.9418 23.453 11.1382 18.9012 10.9212 18.6107C10.7025 18.3185 9.138 16.243 9.138 14.094C9.138 11.945 10.2667 10.888 10.6675 10.4522C11.0682 10.0147 11.5407 9.90625 11.833 9.90625C12.1235 9.90625 12.4158 9.90625 12.6695 9.91675C12.981 9.929 13.3257 9.94475 13.653 10.671C14.0415 11.5355 14.8902 13.695 14.9987 13.9137C15.1072 14.1325 15.1807 14.388 15.0355 14.6785C14.8902 14.969 14.8168 15.151 14.5998 15.4065C14.381 15.662 14.1412 15.9752 13.9452 16.1712C13.7265 16.3882 13.499 16.6262 13.7527 17.062C14.0082 17.4995 14.8833 18.9293 16.1818 20.086C17.8513 21.5735 19.2565 22.0337 19.694 22.2542C20.1315 22.473 20.3852 22.4363 20.6407 22.144C20.8962 21.8535 21.7327 20.87 22.0232 20.4325C22.3137 19.995 22.606 20.0685 23.0068 20.2138C23.4075 20.359 25.5547 21.416 25.9905 21.6347C26.428 21.8535 26.7185 21.962 26.827 22.144C26.9355 22.3243 26.9355 23.1992 26.5715 24.2195Z" fill="#FBFAF5"/>
</svg>
