<svg width="37" height="36" viewBox="0 0 37 36" fill="none" xmlns="http://www.w3.org/2000/svg">
<path d="M18.4098 11.8777C15.0285 11.8777 12.269 14.5481 12.269 17.8204C12.269 21.0926 15.0285 23.763 18.4098 23.763C21.7911 23.763 24.5505 21.0926 24.5505 17.8204C24.5505 14.5481 21.7911 11.8777 18.4098 11.8777ZM36.8274 17.8204C36.8274 15.3595 36.8505 12.9209 36.7077 10.4645C36.5649 7.61131 35.8923 5.07911 33.7363 2.99272C31.5758 0.901863 28.9638 0.255438 26.0155 0.117237C23.4726 -0.0209646 20.9527 0.00132604 18.4144 0.00132604C15.8715 0.00132604 13.3516 -0.0209646 10.8133 0.117237C7.86503 0.255438 5.24842 0.906322 3.09248 2.99272C0.931926 5.08357 0.263953 7.61131 0.121145 10.4645C-0.0216634 12.9254 0.00137024 15.364 0.00137024 17.8204C0.00137024 20.2768 -0.0216634 22.7198 0.121145 25.1763C0.263953 28.0294 0.936533 30.5616 3.09248 32.648C5.25302 34.7389 7.86503 35.3853 10.8133 35.5235C13.3562 35.6617 15.8761 35.6394 18.4144 35.6394C20.9573 35.6394 23.4772 35.6617 26.0155 35.5235C28.9638 35.3853 31.5804 34.7344 33.7363 32.648C35.8969 30.5572 36.5649 28.0294 36.7077 25.1763C36.8551 22.7198 36.8274 20.2813 36.8274 17.8204ZM18.4098 26.964C13.1812 26.964 8.96143 22.8803 8.96143 17.8204C8.96143 12.7604 13.1812 8.6768 18.4098 8.6768C23.6384 8.6768 27.8582 12.7604 27.8582 17.8204C27.8582 22.8803 23.6384 26.964 18.4098 26.964ZM28.2451 10.4378C27.0244 10.4378 26.0385 9.48372 26.0385 8.30232C26.0385 7.12092 27.0244 6.16689 28.2451 6.16689C29.4659 6.16689 30.4517 7.12092 30.4517 8.30232C30.4521 8.58285 30.3953 8.86069 30.2845 9.11993C30.1738 9.37917 30.0112 9.61472 29.8063 9.81309C29.6013 10.0114 29.3579 10.1687 29.09 10.2759C28.8221 10.3831 28.535 10.4381 28.2451 10.4378Z" fill="#FAFAF4"/>
</svg>
